<svg xmlns="http://www.w3.org/2000/svg" shape-rendering="geometricPrecision" text-rendering="geometricPrecision" image-rendering="optimizeQuality" fill-rule="evenodd" clip-rule="evenodd" viewBox="0 0 512 492.585"><path fill="#476AA8" d="M101.509 0h299.515c35.975 0 65.407 29.463 65.407 65.407v361.768c0 35.946-29.462 65.408-65.407 65.408H101.509c-35.946 0-65.408-29.433-65.408-65.408V65.407C36.101 29.432 65.534 0 101.509 0z"/><path fill="#1A334D" d="M108.828 492.585h-7.32c-35.976 0-65.408-29.47-65.408-65.408V65.409C36.1 29.471 65.568.002 101.508.002h7.32v492.583z"/><path fill="#F39C11" fill-rule="nonzero" d="M466.431 197.295l31.156.004c2.184 0 4.213.457 6.162 1.372l-.008.017c2.169 1.027 3.873 2.437 5.221 4.235l-.029.027c.921 1.227 1.625 2.494 2.115 3.798.632 1.686.95 3.365.95 5.036v68.044c0 1.96-.461 3.851-1.392 5.689a13.519 13.519 0 01-2.49 3.473l-.025-.025c-1.089 1.089-2.255 1.941-3.494 2.553l-.021-.034c-1.843.921-3.716 1.378-5.62 1.378l-32.525-.002v-95.565z"/><path fill="#24AE5F" fill-rule="nonzero" d="M466.433 71.954l31.158-.002c2.157 0 4.175.461 6.118 1.375 2.193 1.029 3.905 2.45 5.253 4.257l-.029.019c1.047 1.403 1.832 2.868 2.336 4.466l-.041.014c.508 1.604.772 3.174.772 4.759v67.645c0 1.46-.268 2.929-.812 4.351a11.933 11.933 0 01-.764 1.7 12.827 12.827 0 01-3.397 3.972 13.514 13.514 0 01-2.376 1.547l-.008-.017-.037.017c-1.847.923-3.721 1.39-5.643 1.39h-32.53V71.954z"/><path fill="#C2382C" fill-rule="nonzero" d="M466.433 325.148h31.15c1.746 0 3.4.289 5.033.861 2.111.743 3.83 1.828 5.256 3.254l-.011.01c1.476 1.451 2.567 3.205 3.266 5.222l-.012-.002.012.04a15.28 15.28 0 01.869 5.029v67.549c0 1.168-.159 2.344-.475 3.534-.082.322-.172.651-.279.982a12.882 12.882 0 01-3.124 5.081 13.376 13.376 0 01-3.473 2.538c-1.834.927-3.729 1.384-5.687 1.384l-32.525.002v-95.484z"/><path fill-rule="nonzero" d="M17.729 108.571C7.939 108.571 0 100.633 0 90.843c0-9.79 7.939-17.729 17.729-17.729h51.742c9.79 0 17.729 7.939 17.729 17.729s-7.939 17.728-17.729 17.728H17.729zm0 310.899C7.939 419.47 0 411.532 0 401.742c0-9.79 7.939-17.729 17.729-17.729h51.742c9.79 0 17.729 7.939 17.729 17.729s-7.939 17.728-17.729 17.728H17.729zm0-77.724C7.939 341.746 0 333.808 0 324.018c0-9.79 7.939-17.729 17.729-17.729h51.742c9.79 0 17.729 7.939 17.729 17.729s-7.939 17.728-17.729 17.728H17.729zm0-77.725C7.939 264.021 0 256.082 0 246.292c0-9.789 7.939-17.728 17.729-17.728h51.742c9.79 0 17.729 7.939 17.729 17.728 0 9.79-7.939 17.729-17.729 17.729H17.729zm0-77.728C7.939 186.293 0 178.355 0 168.565c0-9.79 7.939-17.729 17.729-17.729h51.742c9.79 0 17.729 7.939 17.729 17.729s-7.939 17.728-17.729 17.728H17.729z"/><path fill="#fff" fill-rule="nonzero" d="M401.549 233.51c0 6.687-.525 13.131-1.564 19.316-1.046 6.212-2.612 12.135-4.687 17.757l-.084.207c-2.1 5.598-4.644 10.594-7.615 14.974-3.052 4.502-6.547 8.354-10.472 11.549-3.964 3.226-8.239 5.643-12.808 7.254-4.599 1.619-9.478 2.429-14.622 2.429-4.3 0-8.301-.668-12.005-1.997-3.725-1.334-7.096-3.323-10.111-5.948l-.221-.21c-2.898-2.613-5.22-5.584-6.966-8.908a31.675 31.675 0 01-1.964-4.569 47.696 47.696 0 01-4.079 5.637 45.25 45.25 0 01-9.815 8.714c-3.685 2.428-7.738 4.248-12.141 5.464-4.37 1.208-9.043 1.817-13.999 1.817-14.817 0-26.439-5.108-34.864-15.319-4.169-5.053-7.284-10.994-9.346-17.805-2.033-6.727-3.049-14.315-3.049-22.752 0-9.755 1.422-18.643 4.265-26.643 2.862-8.058 7.158-15.191 12.878-21.382l.055-.059c5.753-6.187 12.418-10.835 19.985-13.938 7.558-3.099 15.972-4.648 25.228-4.648 3.199 0 6.661.151 10.366.453 3.602.293 7.416.739 11.425 1.335l.089.015c3.927.563 7.721 1.256 11.373 2.067 3.693.822 7.199 1.765 10.506 2.818a3.03 3.03 0 012.11 3.04l-3.446 64.992.006 3.03c0 7.57 1.34 13.144 4.005 16.718 2.459 3.301 6.258 4.954 11.373 4.954 3.562 0 6.796-1.051 9.688-3.151 3.044-2.209 5.774-5.591 8.176-10.136 2.499-4.73 4.386-10.19 5.646-16.367 1.265-6.216 1.904-13.217 1.904-20.993 0-8.161-.825-15.78-2.479-22.865-1.652-7.075-4.123-13.632-7.414-19.669-3.277-6.048-7.246-11.375-11.899-16.002-4.656-4.627-10.026-8.575-16.09-11.844-6.061-3.258-12.591-5.713-19.586-7.349-6.993-1.639-14.478-2.462-22.441-2.462-10.089 0-19.504 1.037-28.237 3.116-8.699 2.071-16.739 5.179-24.109 9.321-7.364 4.139-13.852 9.151-19.457 15.03-5.615 5.888-10.37 12.67-14.258 20.333-3.906 7.693-6.838 16.001-8.795 24.917-1.964 8.946-2.946 18.522-2.946 28.731 0 13.777 1.804 25.924 5.414 36.447 3.574 10.422 8.926 19.266 16.053 26.525 7.103 7.24 15.801 12.68 26.083 16.31 10.382 3.668 22.415 5.502 36.097 5.502 9.526 0 19.229-.977 29.102-2.924 9.9-1.952 19.997-4.891 30.277-8.805a3.036 3.036 0 014.115 2.836l.004 18.466c0 1.337-.861 2.47-2.058 2.877-9.02 3.925-18.626 6.873-28.83 8.837-10.281 1.979-21.149 2.971-32.61 2.971-17.118 0-32.358-2.368-45.72-7.104-13.448-4.765-24.98-11.93-34.582-21.485-9.597-9.52-16.783-20.956-21.565-34.283-4.756-13.249-7.127-28.329-7.127-45.223 0-12.23 1.259-23.822 3.782-34.769 2.525-10.96 6.323-21.259 11.392-30.888 5.083-9.631 11.255-18.188 18.512-25.664 7.261-7.481 15.604-13.877 25.013-19.176l.218-.111c9.325-5.241 19.331-9.173 29.994-11.796 10.758-2.644 22.177-3.968 34.238-3.968 10.163 0 19.782 1.07 28.86 3.214 9.099 2.148 17.648 5.385 25.65 9.702 8 4.33 15.102 9.575 21.299 15.73 6.18 6.141 11.453 13.188 15.805 21.132 4.374 7.929 7.644 16.459 9.818 25.579 2.173 9.112 3.257 18.818 3.257 29.096zm-143.405 18.179c0 11.061 2.041 19.256 6.122 24.578 3.888 5.069 9.845 7.605 17.872 7.605 8.555 0 15.122-3.198 19.708-9.588 4.85-6.754 7.669-17.076 8.463-30.953l1.854-33.691a73.067 73.067 0 00-7.663-1.399c-3.439-.442-7.089-.668-10.952-.668-5.592 0-10.548.955-14.863 2.864-4.261 1.883-7.949 4.726-11.052 8.521-3.131 3.832-5.492 8.448-7.071 13.825-1.608 5.482-2.418 11.79-2.418 18.906z"/></svg>